<svg xmlns="http://www.w3.org/2000/svg" xmlns:xlink="http://www.w3.org/1999/xlink" viewBox="0,0,256,256" width="50px" height="50px" fill-rule="nonzero"><g fill="#d76a12" fill-rule="nonzero" stroke="none" stroke-width="1" stroke-linecap="butt" stroke-linejoin="miter" stroke-miterlimit="10" stroke-dasharray="" stroke-dashoffset="0" font-family="none" font-weight="none" font-size="none" text-anchor="none" style="mix-blend-mode: normal"><g transform="scale(5.12,5.12)"><path d="M24,2.37109l-6.44727,3.09961c-0.347,0.167 -0.56836,0.51639 -0.56836,0.90039v7.98438l6.95898,-2.07031l0.05664,-0.02344zM26,2.37109v9.89844l7.01563,2.08594v-7.98438c0,-0.384 -0.22136,-0.73439 -0.56836,-0.90039zM11,10.47656v29.04688l3.98438,-0.97266c0,-0.663 0.001,-1.32723 0,-1.99023c-0.001,-0.637 -0.057,-1.29469 0,-1.92969c0.002,-0.021 0.00286,-0.04441 0.00586,-0.06641c0.117,-1.01 0.80384,-1.93695 1.71484,-2.37695c0.286,-0.138 0.58853,-0.20825 0.89453,-0.28125l0.00586,-0.22656l-0.08203,-0.01367c-1.472,-0.23 -2.53906,-1.47784 -2.53906,-2.96484v-7.79297c0,-1.394 0.94253,-2.56448 2.26953,-2.89648c-0.196,0.049 -0.60467,-0.2175 -0.76367,-0.3125c-0.264,-0.157 -0.50298,-0.35503 -0.70898,-0.58203c-0.503,-0.557 -0.77988,-1.27063 -0.79687,-2.01563v-3.65234zM39,10.47656l-3.98437,0.97266v1.25781v2.09961c0,1.444 -0.78253,2.82812 -2.26953,3.20312c1.327,0.332 2.26953,1.50248 2.26953,2.89648v7.79492c0,1.488 -1.06711,2.73289 -2.53711,2.96289l-0.03125,0.00586l0.00195,0.24805l0.26367,0.0625c1.311,0.313 2.27073,1.58697 2.30273,2.91797v3.65039l3.98438,0.97461zM9,10.61914l-3.41797,1.56445c-0.355,0.163 -0.58203,0.51916 -0.58203,0.91016v23.8125c0,0.391 0.22703,0.74816 0.58203,0.91016l3.41797,1.56445zM41,10.61914v28.76172l3.41797,-1.56445c0.355,-0.163 0.58203,-0.51916 0.58203,-0.91016v-23.8125c0,-0.391 -0.22703,-0.7462 -0.58203,-0.9082zM24.85938,14.10156l-6.84766,2.03516l6.75586,1.61328c0.077,0.018 0.15247,0.02734 0.23047,0.02734c0.078,0 0.15642,-0.00934 0.23242,-0.02734l6.75586,-1.61328l-6.8457,-2.03516zM24,18.96094l-6.16992,0.95898c-0.487,0.076 -0.8457,0.49528 -0.8457,0.98828v7.79297c0,0.493 0.3587,0.91228 0.8457,0.98828l6.16992,0.96094zM26,18.96094v11.68945l6.16992,-0.96094c0.487,-0.076 0.8457,-0.49528 0.8457,-0.98828v-7.79297c0,-0.493 -0.3587,-0.91228 -0.8457,-0.98828zM25,32.22266c-0.078,0 -0.15592,0.00934 -0.23242,0.02734l-6.75391,1.61328l6.98633,2.07617l6.98633,-2.07617l-6.75391,-1.61328c-0.0765,-0.018 -0.15442,-0.02734 -0.23242,-0.02734zM16.98438,35.64453v7.98438c0,0.384 0.22136,0.73439 0.56836,0.90039l6.44727,3.09961v-9.89844zM33.01563,35.64453l-7.01562,2.08594v9.89844l6.44727,-3.09961c0.347,-0.167 0.56836,-0.51639 0.56836,-0.90039z"></path></g></g></svg>