<svg xmlns="http://www.w3.org/2000/svg"  viewBox="0 0 24 24" width="48px" height="48px"><path fill="#039be5" d="m9.417 15.182-.397 5.584c.568 0 .815-.244 1.109-.537l2.663-2.545 5.518 4.041c1.012.564 1.725.267 1.998-.931l3.622-16.972.001-.002c.321-1.496-.541-2.08-1.527-1.713l-21.29 8.151c-1.453.565-1.432 1.374-.247 1.741l5.442 1.693 12.644-7.912c.596-.394 1.136-.176.691.218z"/><path fill="#0387c7" d="m22.955 2c-.174 0-.36.035-.551.106l-21.29 8.151c-1.453.565-1.432 1.374-.247 1.741l5.442 1.693 12.644-7.911c.221-.146.434-.208.592-.208.269 0 .379.178.099.426l-10.227 9.184v.001l14.342-12.804c-.189-.252-.474-.379-.804-.379z"/></svg>