<svg xmlns="http://www.w3.org/2000/svg" viewBox="0 0 240 240">
  <circle cx="120" cy="120" r="120" fill="#2AABEE"/>
  <path d="M54 117.5c34-14.8 56.6-24.6 68-29.4 32.3-13.6 39-16 43.4-16.1 1 .0 3 .2 4.4 1.4 1.2 1 1.5 2.4 1.7 3.4.2 1 .4 3.1.2 4.8-2 20.8-10.6 71.7-15 95.3-1.8 10-5.5 13.3-9.1 13.7-7.8.7-13.7-5.1-21.2-10-11.8-7.7-18.5-12.5-30-20-13.2-8.7-4.7-13.5 2.9-21.4 2-2 36.3-33.3 37-36.2.1-.4.2-1.7-.6-2.4-.8-.7-2-.5-2.8-.3-1.2.3-20.7 13.2-58.4 38.7-5.5 3.8-10.5 5.7-15 5.5-5-.1-14.6-2.8-21.7-5.1-8.7-2.8-15.6-4.3-15-9.1.3-2.5 3.8-5.1 10.4-7.8z" fill="#FFF"/>
</svg>